<?xml version="1.0" encoding="UTF-8"?>
<svg id="e" xmlns="http://www.w3.org/2000/svg" version="1.1" viewBox="0 0 1476.4 457">
  <!-- Generator: Adobe Illustrator 30.5.1, SVG Export Plug-In . SVG Version: 2.1.4 Build 3)  -->
  <defs>
    <style>
      .st0, .st1 {
        isolation: isolate;
      }

      .st1 {
        opacity: .5;
      }
    </style>
  </defs>
  <path d="M592,129.5C592,58,534,0,462.5,0s-76.5,18.5-100.2,47.5l-66.3,79-66.6-79.4C205.7,18.3,169.7,0,129.5,0,58,0,0,58,0,129.5v199.5s0,0,0,0,0,0,0,0v3.5h0c1.9,65.4,57.6,124.5,137.9,124.5s122.4-50.8,157.2-88.4c37.4,37.4,99.2,88.4,158.8,88.4s136.1-59.1,137.9-124.6h0c0,0,0-202.9,0-202.9ZM235.6,357.4c-24.9,22.6-62,49.6-97.6,49.6-55.1,0-88-39.7-88-78s7.5-35.5,21.8-48.4c16.1-14.6,39.6-22.6,66.2-22.6s74.2,25.5,99,46.9c9.2,8,25.9,25,25.9,25,0,0-17.6,18.7-27.3,27.6ZM454,407c-25.6,0-60.5-17.9-98.2-50.4-10.2-8.8-59.6-60.7-59.6-60.7-34.4-35.6-93.1-88-158.1-88s-63.1,9.2-86,24.8v-103.3c0-42.7,34.8-77.5,77.5-77.5s45,10.3,59.8,28.2c0,.1.2.2.3.3l24,28.6c.4.6.8,1.3,1.3,1.9l68.9,83.1c6,7.2,17.1,7.2,23.1,0l23.9-28.9c1.8-1.6,3.5-3.4,5.1-5.2l66.3-79c.1-.2.3-.3.4-.5,14.8-18.1,36.7-28.5,60-28.5,42.7,0,77.5,34.8,77.5,77.5v103.3c-22.9-15.5-52.3-24.8-86-24.8-50.8,0-105.3,38-143.5,71.5l32.6,37.9c4.1-3.6,8.3-7.2,12.8-10.8,38.4-31.3,73.3-48.6,98.1-48.6s50,8,66.2,22.6c14.3,12.9,21.8,29.6,21.8,48.4,0,38.3-32.9,78-88,78Z"/>
  <g class="st0">
    <path d="M730,86.9l36.6,89.6h1.5l36.6-89.6h27.2v123.3h-21.3v-84.8h-1.2l-34.2,84.5h-15.8l-34.2-84.8h-1v85.1h-21.5v-123.3h27.2Z"/>
    <path d="M845.6,164.4c0-28.8,17.4-47.9,44.3-47.9s44.3,19.1,44.3,47.9-17.2,47.7-44.3,47.7-44.3-19.1-44.3-47.7ZM912.2,164.2c0-16.9-7.3-30.5-22.1-30.5s-22.5,13.6-22.5,30.5,7.3,30.5,22.5,30.5,22.1-13.5,22.1-30.5Z"/>
    <path d="M946.6,117.7h21.1v15.3h1c3.2-10.6,12.3-16.7,22.8-16.7s5.8.2,7.8.5v20.1c-1.9-.7-6.5-1.4-10-1.4-12.1,0-20.9,8.3-20.9,20.1v54.5h-21.8v-92.5Z"/>
    <path d="M1001.1,164.4c0-28.8,17.4-47.9,44.3-47.9s44.3,19.1,44.3,47.9-17.2,47.7-44.3,47.7-44.3-19.1-44.3-47.7ZM1067.7,164.2c0-16.9-7.3-30.5-22.1-30.5s-22.5,13.6-22.5,30.5,7.3,30.5,22.5,30.5,22.1-13.5,22.1-30.5Z"/>
    <path d="M1161.4,117.7h21.6v92.5h-20.9v-16.3h-1c-4.3,10.2-14,17.5-27.8,17.5s-30.8-12.6-31-34.7v-58.9h21.8v55.5c0,11.7,7,19.2,17.5,19.2s19.8-7,19.8-21.1v-53.6Z"/>
    <path d="M1245.8,134.4h-18.2v48c0,8.9,4.4,10.7,9.9,10.7s6.8-.2,9.5-.3v17.7c-2.6.5-6.8.9-12.3.9-16.3,0-28.9-8-28.8-25.4v-51.6h-13.3v-16.7h13.3v-22.1h21.6v22.1h18.2v16.7Z"/>
    <path d="M1256.8,92.7c0-6.5,5.8-11.8,12.6-11.8s12.6,5.3,12.6,11.8-5.6,11.9-12.6,11.9-12.6-5.3-12.6-11.9ZM1258.3,117.7h21.8v92.5h-21.8v-92.5Z"/>
    <path d="M1318.5,210.2h-21.8v-92.5h20.8v15.7h1.2c4.3-10.4,13.6-16.9,27.4-16.9s31.8,12.6,31.7,34.7v58.9h-21.6v-55.5c0-12.4-6.6-19.8-18.1-19.8s-19.6,7.7-19.6,21.1v54.2Z"/>
    <path d="M1390.4,164.5c0-28.6,17.4-48,43.8-48s42.2,14.1,42.2,46.7v6.8h-64.5c.3,15.8,9.5,25,23.7,25s16-4.1,18.7-9.5h21.3c-3.9,16-18.7,26.6-40.2,26.6s-45-18.6-45-47.5ZM1455.6,155.2c-.2-12.6-8.5-21.8-21.1-21.8s-21.8,10-22.5,21.8h43.6Z"/>
  </g>
  <g class="st1">
    <path d="M789.9,360.1h-95v-10.5h41v-22.7h-30.5v-50.2h73.6v50.2h-30.5v22.7h41.4v10.5ZM717.8,316.9h48.4v-29.9h-48.4v29.9Z"/>
    <path d="M888.8,341.6h-41.3v31.3h-12.8v-31.3h-41v-10.2h95v10.2ZM877.7,301.9h-59.7v10.4h62v10.2h-74.9v-30.3h59.5v-9.5h-59.7v-10.4h72.8v29.6Z"/>
    <path d="M948.9,287h-37.3v11.4h34.3v9.9h-34.3v11.6c19.4,0,31.3-.3,45-2.5l1.3,9.9c-15,2.6-28,3-50.4,3h-8.9v-53.5h50.3v10.2ZM982.4,370.7h-71.7v-31.6h12.9v21.3h58.8v10.4ZM979.5,345.8h-12.9v-77h12.9v77Z"/>
  </g>
</svg>