<?xml version="1.0" encoding="UTF-8"?>
<svg id="e" data-name="white full2" xmlns="http://www.w3.org/2000/svg" viewBox="0 0 1482 457">
  <g>
    <path d="M462.5,0c-40.409363,0-76.495789,18.508423-100.244385,47.510376l-66.255615,79.034424-66.571533-79.418823C205.676208,18.344971,169.730408,0,129.500061,0,57.979248,0,.000061,57.979187.000061,129.5v203l52-52v-151c0-42.733582,34.766418-77.5,77.5-77.5,23.214966,0,45.019348,10.287415,59.822388,28.224365.084595.102417.169373.204651.254761.306458l23.964661,28.589417c.386597.634583.82666,1.255188,1.324951,1.856384l68.866638,83.089355c5.998474,7.237305,17.099304,7.237305,23.097778,0l23.932251-28.874817c1.800842-1.619934,3.50946-3.358826,5.086304-5.239807l66.255615-79.034363c.128418-.153198.255981-.30719.382629-.461792,14.807983-18.083801,36.68158-28.4552,60.011963-28.4552,42.733643,0,77.5,34.766418,77.5,77.5v151l52,52v-203C592,57.979187,534.020813,0,462.5,0Z"/>
    <path d="M454.000014,208c-50.779658,0-105.267445,37.952576-143.504929,71.485291l32.587704,37.929382c4.072937-3.58075,8.334716-7.211365,12.77722-10.831543,38.445797-31.329285,73.299309-48.58313,98.140005-48.58313,26.52667,0,50.025447,8.016479,66.167779,22.572632,14.282835,12.879211,21.832151,29.625183,21.832151,48.427368,0,38.341309-32.916317,78-87.99993,78-25.571714,0-60.463495-17.886658-98.248159-50.36499-10.217101-8.782349-59.602889-60.677563-59.602889-60.677563-34.381649-35.611511-93.105653-87.957447-158.148981-87.957447C56.261957,208,0,262.173462,0,329s56.261957,128,137.999986,128c63.623712,0,122.429431-50.830444,157.22856-88.428406,37.371639,37.418396,99.230764,88.428406,158.771468,88.428406,81.738151,0,137.999925-61.173523,137.999925-128s-56.261774-121-137.999925-121ZM235.584815,357.414795c-24.890195,22.620544-62.024652,49.585205-97.584829,49.585205-55.083674,0-87.999991-39.658691-87.999991-78,0-18.802185,7.549499-35.548035,21.832151-48.427368,16.142332-14.556152,39.64117-22.572632,66.16784-22.572632,36.891964,0,74.19146,25.499146,98.985463,46.89032,9.232177,7.965027,25.940122,24.960754,25.940122,24.960754,0,0-17.55084,18.666443-27.340756,27.563721Z"/>
  </g>
  <g>
    <text transform="translate(691.384783 210.166016)" style="font-family: Pretendard-SemiBold-KSCpc-EUC-H, Pretendard; font-size: 174.379135px; font-weight: 600;"><tspan x="0" y="0" style="letter-spacing: -.025005em;">Mo</tspan><tspan x="244.845703" y="0" style="letter-spacing: -.042086em;">r</tspan><tspan x="303.239258" y="0" style="letter-spacing: -.024999em;">outine</tspan></text>
    <text transform="translate(691.384783 362.501953)" style="font-family: Pretendard-SemiBold-KSCpc-EUC-H, Pretendard; font-size: 117.823746px; font-weight: 600; letter-spacing: -.024998em; opacity: .5;"><tspan x="0" y="0">모루틴</tspan></text>
  </g>
</svg>