<?xml version="1.0" encoding="UTF-8"?>
<svg id="f" data-name="레이어 6" xmlns="http://www.w3.org/2000/svg" viewBox="0 0 24 24">
  <path d="M20,2c1.103027,0,2,.8972,2,2v16c0,1.1028-.896973,2-2,2H4c-1.103027,0-2-.8972-2-2V4c0-1.1028.896973-2,2-2h16M20,0H4C1.791016,0,0,1.79086,0,4v16c0,2.209141,1.791016,4,4,4h16c2.208984,0,4-1.790859,4-4V4c0-2.20914-1.791016-4-4-4h0Z"/>
  <rect x="5" y="5" width="14" height="2" rx=".999999" ry=".999999"/>
  <rect x="5" y="9" width="8" height="2" rx=".999999" ry=".999999"/>
</svg>