<?xml version="1.0" encoding="UTF-8"?>
<svg id="h" data-name="레이어 6 사본 3" xmlns="http://www.w3.org/2000/svg" viewBox="0 0 24 24">
  <path d="M20,3h-4V1c0-.552307-.447754-1-1-1s-1,.447693-1,1v2h-4V1c0-.552307-.447754-1-1-1s-1,.447693-1,1v2h-4C1.791016,3,0,4.790833,0,7v13c0,2.209106,1.791016,4,4,4h16c2.208984,0,4-1.790894,4-4V7c0-2.209167-1.791016-4-4-4ZM22,20c0,1.102783-.896973,2-2,2H4c-1.103027,0-2-.897217-2-2V7c0-1.102783.896973-2,2-2h4v1c0,.552246.447754,1,1,1s1-.447754,1-1v-1h4v1c0,.552246.447754,1,1,1s1-.447754,1-1v-1h4c1.103027,0,2,.897217,2,2v13Z"/>
  <path d="M9.351562,9.476074h6.46875v1.453125l-4.03125,7.921875h-1.734375l4.03125-7.921875h-4.734375v-1.453125Z"/>
</svg>