<?xml version="1.0" encoding="UTF-8"?>
<svg id="l" data-name="레이어 12" xmlns="http://www.w3.org/2000/svg" viewBox="0 0 24 24">
  <path d="M23.37793,10.497986l-2.078125-2.078003c-.123047-.12323-.192383-.290405-.192383-.464661v-2.93866c0-1.173157-.950684-2.124146-2.124023-2.124146h-2.938965c-.174316,0-.341309-.069214-.464355-.192444l-2.078125-2.078003c-.82959-.829468-2.174316-.829468-3.003906,0l-2.078125,2.078003c-.123047.12323-.290039.192444-.464355.192444h-2.938965c-1.17334,0-2.124023.950989-2.124023,2.124146v2.93866c0,.174255-.069336.341431-.192383.464661l-2.078125,2.078003c-.82959.829529-.82959,2.1745,0,3.003967l2.078125,2.078003c.123047.123291.192383.290405.192383.464722v2.938721c0,1.173096.950684,2.124146,2.124023,2.124146h2.938965c.174316,0,.341309.069214.464355.192444l2.078125,2.077942c.82959.829407,2.174316.829407,3.003906,0l2.078125-2.077942c.123047-.12323.290039-.192444.464355-.192444h2.938965c1.17334,0,2.124023-.95105,2.124023-2.124146v-2.938721c0-.174316.069336-.341431.192383-.464722l2.078125-2.078003c.82959-.829468.82959-2.174438,0-3.003967ZM12,17.833374c-3.22168,0-5.833496-2.611694-5.833496-5.833374s2.611816-5.833374,5.833496-5.833374,5.833496,2.611694,5.833496,5.833374-2.611816,5.833374-5.833496,5.833374Z"/>
</svg>