<?xml version="1.0" encoding="UTF-8"?>
<svg id="k" data-name="레이어 10 사본" xmlns="http://www.w3.org/2000/svg" viewBox="0 0 24 24">
  <path d="M12,2.403725l10,6.666641v12.929634h-5v-5.400002c0-2.757011-2.243164-5-5-5s-5,2.242989-5,5v5.400002H2v-12.929634L12,2.403725M12,.403702c-.386719,0-.773438.111961-1.109375.335892L.890625,7.406265c-.556641.370934-.890625.995399-.890625,1.664101v12.929634c0,1.104568.895508,2,2,2h5c1.104492,0,2-.895432,2-2v-5.400002c0-1.656853,1.343262-3,3-3s3,1.343147,3,3v5.400002c0,1.104568.895508,2,2,2h5c1.104492,0,2-.895432,2-2v-12.929634c0-.668701-.333984-1.293167-.890625-1.664101L13.109375.739594c-.335938-.22393-.722656-.335892-1.109375-.335892h0Z"/>
</svg>