<?xml version="1.0" encoding="UTF-8"?>
<svg id="j" data-name="레이어 10" xmlns="http://www.w3.org/2000/svg" viewBox="0 0 24 24">
  <path d="M11.11248.59168L.71248,7.525014c-.445118.296745-.71248.796315-.71248,1.33128v13.543706c0,.883656.716344,1.6,1.6,1.6h4.8c.883656,0,1.6-.716344,1.6-1.6v-4.800004c0-2.209137,1.790859-3.999996,3.999996-3.999996h.000008c2.209137,0,3.999996,1.790859,3.999996,3.999996v4.800004c0,.883656.716344,1.6,1.6,1.6h4.8c.883656,0,1.6-.716344,1.6-1.6v-13.543706c0-.534965-.267362-1.034535-.71248-1.33128L12.88752.59168c-.537439-.358293-1.237602-.358293-1.775041,0Z"/>
</svg>