<?xml version="1.0" encoding="UTF-8"?>
<svg id="m" data-name="레이어 13" xmlns="http://www.w3.org/2000/svg" viewBox="0 0 24 24">
  <path d="M12,2c.05127,0,.077637.026443.087891.036362l2.077148,2.07692c.501465.502518,1.168945.779266,1.879395.779266h2.938965c.068359,0,.124023.055695.124023.124146v2.93866c0,.70903.275879,1.3759.77832,1.878906l2.078125,2.078018c.009766.009949.036133.036362.036133.087753,0,.051346-.026367.077698-.036133.087692l-2.07959,2.079483c-.500977.501907-.776855,1.168686-.776855,1.877502v2.938721c0,.068451-.055664.124146-.124023.124146h-2.938965c-.710449,0-1.37793.276749-1.878418.778168l-2.078125,2.07785c-.009766.009964-.036621.036423-.087891.036423s-.078125-.026474-.087891-.036331l-2.07666-2.076782c-.501953-.502563-1.169434-.779327-1.879883-.779327h-2.938965c-.068359,0-.124023-.055695-.124023-.124146v-2.938721c0-.708817-.275879-1.375595-.77832-1.878967l-2.078125-2.078079c-.009766-.009933-.036133-.036285-.036133-.087631,0-.051392.026367-.077805.036133-.087753l2.07959-2.079147c.500977-.501877.776855-1.168747.776855-1.877777v-2.93866c0-.068451.055664-.124146.124023-.124146h2.938965c.710449,0,1.37793-.276764,1.878418-.778183l2.078125-2.077942c.010254-.009964.036621-.036423.087891-.036423M12,0c-.543457,0-1.086914.207367-1.501953.622101l-2.078125,2.078003c-.123047.12323-.290039.192444-.464355.192444h-2.938965c-1.17334,0-2.124023.950989-2.124023,2.124146v2.93866c0,.174255-.069336.341431-.192383.464661l-2.078125,2.078003c-.82959.829529-.82959,2.1745,0,3.003967l2.078125,2.078003c.123047.123291.192383.290405.192383.464722v2.938721c0,1.173096.950684,2.124146,2.124023,2.124146h2.938965c.174316,0,.341309.069214.464355.192444l2.078125,2.077942c.415039.414703.958496.622055,1.501953.622055s1.086914-.207352,1.501953-.622055l2.078125-2.077942c.123047-.12323.290039-.192444.464355-.192444h2.938965c1.17334,0,2.124023-.95105,2.124023-2.124146v-2.938721c0-.174316.069336-.341431.192383-.464722l2.078125-2.078003c.82959-.829468.82959-2.174438,0-3.003967l-2.078125-2.078003c-.123047-.12323-.192383-.290405-.192383-.464661v-2.93866c0-1.173157-.950684-2.124146-2.124023-2.124146h-2.938965c-.174316,0-.341309-.069214-.464355-.192444l-2.078125-2.078003c-.415039-.414734-.958496-.622101-1.501953-.622101h0Z"/>
  <path d="M12,8.166473c2.11377,0,3.833496,1.719696,3.833496,3.833496s-1.719727,3.833511-3.833496,3.833511-3.833496-1.719711-3.833496-3.833511,1.719727-3.833496,3.833496-3.833496M12,6.166473c-3.22168,0-5.833496,2.611755-5.833496,5.833496s2.611816,5.833511,5.833496,5.833511,5.833496-2.611755,5.833496-5.833511-2.611816-5.833496-5.833496-5.833496h0Z"/>
</svg>