<?xml version="1.0" encoding="UTF-8"?>
<svg id="a" data-name="white" xmlns="http://www.w3.org/2000/svg" viewBox="0 0 912 912">
  <rect width="912" height="912" rx="100" ry="100" style="fill: #000;"/>
  <g>
    <path fill="#fff" d="M622.5,227.5c-40.409363,0-76.495789,18.508423-100.244385,47.510376l-66.255615,79.034424-66.571533-79.418823c-23.752258-28.781006-59.698059-47.125977-99.928406-47.125977-71.520813,0-129.5,57.979187-129.5,129.5v203l52-52v-151c0-42.733582,34.766418-77.5,77.5-77.5,23.214966,0,45.019348,10.287415,59.822388,28.224365.084595.102417.169373.204651.254761.306458l23.964661,28.589417c.386597.634583.82666,1.255188,1.324951,1.856384l68.866638,83.089355c5.998474,7.237305,17.099304,7.237305,23.097778,0l23.932251-28.874817c1.800842-1.619934,3.50946-3.358826,5.086304-5.239807l66.255615-79.034363c.128418-.153198.255981-.30719.382629-.461792,14.807983-18.083801,36.68158-28.4552,60.011963-28.4552,42.733643,0,77.5,34.766418,77.5,77.5v151l52,52v-203c0-71.520813-57.979187-129.5-129.5-129.5Z"/>
    <path fill="#fff" d="M614.000014,435.5c-50.779658,0-105.267445,37.952576-143.504929,71.485291l32.587704,37.929382c4.072937-3.58075,8.334716-7.211365,12.77722-10.831543,38.445797-31.329285,73.299309-48.58313,98.140005-48.58313,26.52667,0,50.025447,8.016479,66.167779,22.572632,14.282835,12.879211,21.832151,29.625183,21.832151,48.427368,0,38.341309-32.916317,78-87.99993,78-25.571714,0-60.463495-17.886658-98.248159-50.36499-10.217101-8.782349-59.602889-60.677563-59.602889-60.677563-34.381649-35.611511-93.105653-87.957447-158.148981-87.957447-81.738029,0-137.999986,54.173462-137.999986,121s56.261957,128,137.999986,128c63.623712,0,122.429431-50.830444,157.22856-88.428406,37.371639,37.418396,99.230764,88.428406,158.771468,88.428406,81.738151,0,137.999925-61.173523,137.999925-128s-56.261774-121-137.999925-121ZM395.584815,584.914795c-24.890195,22.620544-62.024652,49.585205-97.584829,49.585205-55.083674,0-87.999991-39.658691-87.999991-78,0-18.802185,7.549499-35.548035,21.832151-48.427368,16.142332-14.556152,39.64117-22.572632,66.16784-22.572632,36.891964,0,74.19146,25.499146,98.985463,46.89032,9.232177,7.965027,25.940122,24.960754,25.940122,24.960754,0,0-17.55084,18.666443-27.340756,27.563721Z"/>
  </g>
</svg>